<svg width="829" height="663" viewBox="0 0 829 663" fill="none" xmlns="http://www.w3.org/2000/svg">
<path d="M180.703 330C224.703 334 260.703 351 288.703 381C316.703 411 330.703 449 330.703 495C330.703 545 315.703 586 285.703 618C255.703 648 217.703 663 171.703 663C119.703 663 77.7031 644 45.7031 606C15.7031 568 0.703137 509 0.703137 429C0.703137 275 51.7031 142 153.703 29.9999C173.703 9.99988 196.703 -0.000114441 222.703 -0.000114441C244.703 -0.000114441 263.703 7.9999 279.703 23.9999C295.703 37.9999 303.703 54.9998 303.703 74.9998C303.703 96.9999 295.703 116 279.703 132C227.703 186 194.703 252 180.703 330ZM678.703 330C722.703 334 758.703 351 786.703 381C814.703 411 828.703 449 828.703 495C828.703 545 813.703 586 783.703 618C753.703 648 715.703 663 669.703 663C617.703 663 575.703 644 543.703 606C513.703 568 498.703 509 498.703 429C498.703 275 549.703 142 651.703 29.9999C671.703 9.99988 694.703 -0.000114441 720.703 -0.000114441C742.703 -0.000114441 761.703 7.9999 777.703 23.9999C793.703 37.9999 801.703 54.9998 801.703 74.9998C801.703 96.9999 793.703 116 777.703 132C725.703 186 692.703 252 678.703 330Z" fill="#5e5d5d7a" fill-opacity="0.12"/>
</svg>
